<?xml version="1.0" encoding="utf-8"?>
<!-- Generator: Adobe Illustrator 16.0.0, SVG Export Plug-In . SVG Version: 6.00 Build 0)  -->
<!DOCTYPE svg PUBLIC "-//W3C//DTD SVG 1.1//EN" "http://www.w3.org/Graphics/SVG/1.1/DTD/svg11.dtd">
<svg version="1.1" xmlns="http://www.w3.org/2000/svg" xmlns:xlink="http://www.w3.org/1999/xlink" x="0px" y="0px" width="1200px"
	 height="627px" viewBox="0 0 1200 627" enable-background="new 0 0 1200 627" xml:space="preserve">
<g id="Plano_de_Fundo_xA0_Image_1_" display="none">
</g>
<g id="Agrupar_1_1_" display="none">
	<g id="Olá_x2C__me_chamo_1_" display="inline">
		<rect x="50" y="479.5" fill="none" width="597" height="36"/>
		<text transform="matrix(1 0 0 1 50 497.2656)" font-family="'SegoeUI'" font-size="24">Olá, me chamo</text>
	</g>
	<g id="Lucas_da_Silva_Santos_1_" display="inline">
		<rect x="50" y="505.5" fill="none" width="625.5" height="88.5"/>
		<text transform="matrix(1 0 0 1 50 541.0313)" fill="#07CE07" font-family="'SegoeUI-Bold'" font-size="48" letter-spacing="1">Lucas da Silva Santos</text>
	</g>
</g>
<g id="_x3C_h1_x3E_">
	<rect x="971.854" y="216.629" fill="none" width="226.325" height="51.988"/>
	<text transform="matrix(1 0 0 1 971.8535 235.876)" font-family="'SegoeUI'" font-size="26">&lt;h1&gt;</text>
	<rect x="853.149" y="242.623" fill="none" width="81.904" height="29.373"/>
	<text transform="matrix(1 0 0 1 853.1494 252.563)" font-family="'Myriad-Roman'" font-size="14">&lt;html&gt;</text>
	<rect x="1013.35" y="337.735" fill="none" width="143.334" height="82.246"/>
	<text transform="matrix(1 0 0 1 1013.3496 356.1953)" font-family="'Myriad-Bold'" font-size="26">&lt;iframe&gt;</text>
	<g id="_x3C_div_x3E_">
	</g>
	<rect x="608.423" y="308.359" fill="none" width="160.784" height="58.751"/>
	<text transform="matrix(1 0 0 1 608.4229 325.3984)" font-family="'Myriad-Roman'" font-size="24">&lt;section&gt;</text>
	<rect x="759.851" y="250.475" fill="none" width="268.501" height="134.344"/>
	<text transform="matrix(1 0 0 1 759.8506 280.084)" font-family="'SegoeUI-Bold'" font-size="40" letter-spacing="1">&lt;div&gt;</text>
	<rect x="852.023" y="386.479" fill="none" width="149.402" height="67.006"/>
	<text transform="matrix(1 0 0 1 852.0234 403.5176)" font-family="'Myriad-Roman'" font-size="24">&lt;style&gt;</text>
	<rect x="1085.016" y="173.662" fill="none" width="160.14" height="50.762"/>
	<text transform="matrix(1 0 0 1 1085.0156 185.0215)" font-family="'Myriad-Bold'" font-size="16">&lt;strong&gt;</text>
	<rect x="926.725" y="302.694" fill="none" width="203.255" height="97.919"/>
	<text transform="matrix(1 0 0 1 926.7246 312.6343)" font-family="'Myriad-Roman'" font-size="14">function</text>
	<rect x="752.216" y="362.979" fill="none" width="101.627" height="47.001"/>
	<text transform="matrix(1 0 0 1 752.2158 375.0488)" font-family="'Myriad-Roman'" font-size="17">var</text>
</g>
</svg>
